<?xml version="1.0" encoding="UTF-8"?>
<svg id="Layer_2" data-name="Layer 2" xmlns="http://www.w3.org/2000/svg" viewBox="0 0 240.94 254.74">
  <defs>
    <style>
      .cls-1 {
        font-family: CenturySchoolbook, 'Century Schoolbook';
        font-size: 45px;
      }

      .cls-1, .cls-2 {
        fill: #414042;
      }

      .cls-2 {
        stroke-width: 0px;
      }
    </style>
  </defs>
  <g id="Layer_1-2" data-name="Layer 1">
    <g>
      <path class="cls-2" d="M14.17,76.54v113.39h99.21v-113.39H14.17ZM98.22,175.75H27.38v-4.31h6.96c2.38,0,4.04-.45,5-1.35.96-.9,1.44-2.35,1.44-4.34v-66.41c0-1.42-.4-2.49-1.21-3.22-.81-.73-1.99-1.09-3.56-1.09h-8.62v-4.31h39.44v4.31h-9.43c-1.49,0-2.6.39-3.31,1.18-.71.79-1.06,2.02-1.06,3.71v67.1c0,1.61.45,2.75,1.35,3.42.9.67,2.71,1.01,5.43,1.01h11.94c6.35,0,11.55-2.12,15.59-6.35,4.04-4.23,6.98-11.59,8.81-22.05h4.03l-1.96,32.72Z"/>
      <g>
        <path class="cls-2" d="M177.17,95.02h-9.66c-1.73,0-3,.36-3.82,1.09-.82.73-1.24,1.82-1.24,3.28v67.85c0,1.38.48,2.43,1.44,3.13.96.71,2.59,1.06,4.89,1.06h7.24c6.48,0,12.15-1.67,17.02-5,3.18-2.22,5.6-5.35,7.24-9.37,2.26-5.44,3.39-12.96,3.39-22.54,0-14.18-2.47-24.57-7.42-31.16-4.22-5.56-10.58-8.34-19.09-8.34Z"/>
        <path class="cls-2" d="M127.56,76.54v113.39h99.21v-113.39h-99.21ZM214.08,153.5c-1.8,4.71-4.57,8.84-8.31,12.36-3.74,3.53-8.29,6.17-13.66,7.93-4.03,1.3-9.39,1.96-16.1,1.96h-39.33v-4.31h8.05c2.03,0,3.44-.33,4.23-.98.79-.65,1.18-1.67,1.18-3.05v-68.48c0-1.19-.42-2.14-1.27-2.85-.84-.71-2.01-1.06-3.51-1.06h-8.68v-4.31h43.93c6.52,0,12.05,1.15,16.62,3.45,5.67,2.91,10.49,7.76,14.46,14.55s5.95,14.82,5.95,24.09c0,7.67-1.19,14.57-3.56,20.7Z"/>
      </g>
    </g>
    <text class="cls-1" transform="translate(62.75 73.47) rotate(-33.68)"><tspan x="0" y="0">L</tspan></text>
    <text class="cls-1" transform="translate(85.24 58.59) rotate(-17.41)"><tspan x="0" y="0">e</tspan></text>
    <text class="cls-1" transform="translate(103.86 52.09) rotate(-2.24)"><tspan x="0" y="0">k</tspan></text>
    <text class="cls-1" transform="translate(127.93 51.36) rotate(11.23)"><tspan x="0" y="0">t</tspan></text>
    <text class="cls-1" transform="translate(142.91 53.8) rotate(23.65)"><tspan x="0" y="0">o</tspan></text>
    <text class="cls-1" transform="translate(161.3 61.71) rotate(36.75)"><tspan x="0" y="0">r</tspan></text>
    <text class="cls-1" transform="translate(54.19 222.6) rotate(24.76)"><tspan x="0" y="0">D</tspan></text>
    <text class="cls-1" transform="translate(92.16 238.27) rotate(7.52)"><tspan x="0" y="0">a</tspan></text>
    <text class="cls-1" transform="translate(122.28 241.71) rotate(-7.29)"><tspan x="0" y="0">h</tspan></text>
    <text class="cls-1" transform="translate(153.53 236.57) rotate(-19.26)"><tspan x="0" y="0">l</tspan></text>
    <text class="cls-1" transform="translate(170.46 230.7) rotate(-29.78)"><tspan x="0" y="0">e</tspan></text>
  </g>
</svg>