<?xml version="1.0" encoding="UTF-8"?>
<svg id="Layer_2" data-name="Layer 2" xmlns="http://www.w3.org/2000/svg" viewBox="0 0 57.44 80.58">
  <defs>
    <style>
      .cls-1 {
        fill: #1c75bc;
      }

      .cls-2 {
        fill: #2b3990;
      }

      .cls-3 {
        opacity: .44;
      }

      .cls-4 {
        fill: #00aeef;
      }
    </style>
  </defs>
  <g id="Layer_3" data-name="Layer 3">
    <path class="cls-1" d="M25.36,19.06c-3.81,2.67-6.84,6.32-8.77,10.56-.97,2.13-1.63,4.38-1.99,6.67,0,0,0,0,0,0,0,.05-.02.11-.02.16h0c-.35,2.35-.38,4.75-.07,7.14.15,1.19.39,2.37.7,3.52l-3.09,1.09c-.2-.7-.37-1.41-.51-2.13-.21-1.05-1.23-1.73-2.28-1.52-1,.2-1.67,1.14-1.54,2.14,0,.05.01.09.02.14.3,1.51.71,3,1.22,4.44,0,0,0,0,0,0,.02.04.03.09.05.13,0,0,0,0,0,0,1.48,4.17,3.8,8.02,6.83,11.29,4.02,4.36,9.14,7.56,14.8,9.27,1.02.31,2.1-.27,2.41-1.3.31-1.02-.27-2.1-1.3-2.41-8.38-2.52-15.05-8.58-18.41-16.41l3.1-1.09c.25.58.53,1.14.82,1.7,1.42,2.67,3.28,5.05,5.53,7.08.79.72,2.02.65,2.74-.14.72-.79.65-2.02-.14-2.74-3.9-3.52-6.42-8.34-7.09-13.56-.18-1.42-.22-2.83-.14-4.22l2.29.35c-.06,1.18-.02,2.38.13,3.57.29,2.27.96,4.45,2,6.48,1,1.95,2.32,3.72,3.92,5.24,3.2,3.05,7.37,4.96,11.75,5.36,1.07.1,2.01-.68,2.11-1.75.1-1.07-.68-2.01-1.75-2.11-7.29-.68-13.25-6.44-14.18-13.72-1.1-8.63,5.02-16.56,13.65-17.66,3.12-.4,6.25.13,9.04,1.53.96.48,2.12.09,2.6-.87.48-.96.09-2.12-.87-2.6-3.49-1.74-7.38-2.4-11.27-1.9-2.63.34-5.12,1.18-7.4,2.5-2.2,1.28-4.1,2.95-5.66,4.97-1.56,2.02-2.7,4.28-3.39,6.73-.04.13-.07.26-.1.38l-2.3-.35c1.25-5.11,4.31-9.69,8.79-12.82.88-.61,1.09-1.82.48-2.7-.61-.88-1.82-1.09-2.7-.48Z"/>
    <path class="cls-2" d="M35.18.33c-5.39.69-10.49,2.42-15.15,5.13-4.5,2.62-8.41,6.05-11.6,10.19-3.2,4.14-5.53,8.78-6.94,13.8C.03,34.64-.36,40.01.33,45.4c.69,5.39,2.42,10.49,5.13,15.15,2.62,4.5,6.05,8.4,10.19,11.6,4.14,3.2,8.78,5.53,13.8,6.94,5.19,1.45,10.56,1.84,15.96,1.15.15-.02.3-.04.45-.06.06,0,.12-.02.17-.02.57-.08,1.15-.18,1.71-.28,1.05-.2,1.74-1.21,1.55-2.26-.18-.96-1.03-1.61-1.97-1.58l-.47-3.35c2.95-.6,5.79-1.6,8.47-2.97.95-.49,1.33-1.66.84-2.61-.49-.95-1.65-1.33-2.6-.84l-1.3-3.02c1.59-.83,3.09-1.83,4.49-2.99.82-.68.94-1.9.25-2.73-.68-.82-1.9-.94-2.73-.25-1.46,1.21-3.07,2.23-4.78,3.02l-.81-2.27c.24-.11.47-.23.7-.35.94-.5,1.3-1.67.8-2.62s-1.67-1.3-2.62-.8c-.63.34-1.29.63-1.97.88-.01,0-.03.01-.04.02-.01,0-.02,0-.03.01,0,0,0,0,0,0,0,0,0,0,0,0,0,0,0,0-.01,0,0,0,0,0,0,0-.02,0-.03.01-.05.02,0,0,0,0,0,0-.01,0-.03.01-.04.02-.02,0-.04.02-.06.03-.02,0-.03.02-.05.03,0,0,0,0,0,0-.02.01-.04.02-.06.03,0,0,0,0,0,0h-.02s-.02.02-.03.03c0,0-.02.01-.02.02,0,0-.01.01-.02.02-.01,0-.03.02-.04.03,0,0-.02.01-.02.02,0,0,0,0,0,0-.01,0-.03.02-.04.03,0,0-.02.01-.03.02,0,0,0,0,0,0-.02.01-.03.03-.05.04-.02.02-.04.04-.06.06-.02.02-.03.03-.05.05,0,0-.01.02-.02.02-.01.02-.03.03-.04.05-.02.02-.03.04-.05.06,0,0,0,0,0,0-.01.02-.03.04-.04.06,0,0,0,.01-.01.02-.01.02-.03.04-.04.06-.01.02-.03.04-.04.06,0,0,0,0,0,0-.01.02-.02.04-.03.06,0,.01-.02.03-.02.04,0,.01-.01.02-.02.04,0,0,0,0,0,0,0,.02-.02.04-.03.06-.01.03-.03.06-.04.09,0,.02-.02.04-.02.07,0,.02-.02.05-.02.08,0,.01,0,.03-.01.04,0,.01,0,.02-.01.04,0,.01,0,.03-.01.05,0,.02-.01.05-.02.07,0,0,0,0,0,0,0,.01,0,.02,0,.04,0,.01,0,.02,0,.04,0,0,0,.01,0,.02,0,0,0,0,0,0,0,.03,0,.06,0,.08,0,0,0,.01,0,.02,0,0,0,.01,0,.02,0,0,0,0,0,0,0,0,0,.01,0,.02,0,.01,0,.03,0,.04,0,.05,0,.11,0,.16,0,.01,0,.02,0,.03,0,.02,0,.04,0,.06,0,0,0,.02,0,.03,0,.01,0,.03,0,.04,0,.02,0,.04,0,.06,0,.01,0,.03,0,.04,0,.02,0,.04.01.05,0,.02,0,.03.01.05,0,0,0,0,0,0,0,.01,0,.02,0,.04,0,.02,0,.03.01.05,0,0,0,.02,0,.03,0,0,0,.02,0,.03,0,.01.01.03.02.04,0,0,0,0,0,0h0s1.42,4,1.42,4c-.93.24-1.87.43-2.83.55-3.79.49-7.65-.02-11.16-1.47-.99-.41-2.12.07-2.53,1.05-.13.32-.17.66-.13.98.09.67.52,1.27,1.19,1.55,4.13,1.7,8.67,2.3,13.13,1.73,1.78-.23,3.52-.64,5.2-1.22v-.02c.07-.01.15-.03.23-.06.04-.01.08-.03.13-.04-.02,0-.04.02-.06.02-.02,0-.04.02-.07.02-.08.03-.15.06-.23.08l1.29,3.02c-1.81.64-3.68,1.1-5.61,1.38-.16.02-.31.04-.47.06-1.79.23-3.61.29-5.39.19-1.07-.06-1.98.76-2.04,1.82,0,.12,0,.24.01.36.12.91.87,1.63,1.81,1.69,1.56.09,3.13.07,4.7-.07l.47,3.32c-19.35,1.71-36.81-12.22-39.3-31.65-1.45-11.31,2.48-22.08,9.79-29.75l2.25,2.39c-5.46,5.76-8.7,13.32-9.04,21.31,0,.11,0,.22.01.33.12.92.88,1.65,1.84,1.69,1.07.05,1.97-.78,2.02-1.85.32-7.61,3.63-14.78,9.16-19.98h0s.05-.05.07-.07c0,0,0,0,0,0,0,0,0,0,0,0,0,0,0,0,0,0,0,0,0,0,0,0,0,0,0,0,0,0,0,0,0,0,0,0,.53-.49,1.07-.97,1.64-1.42.83-.67.97-1.89.29-2.72-.67-.83-1.89-.97-2.72-.29-.15.12-.31.25-.46.38l-2.26-2.4c3.73-3.17,8.13-5.61,13-7.07l.79,3.25c-1.77.54-3.49,1.22-5.15,2.05-.76.38-1.16,1.18-1.06,1.98.03.21.09.42.19.62.48.96,1.64,1.34,2.6.87,1.96-.98,4.02-1.73,6.15-2.25,0,0,0,0,0,0,.02,0,.04-.01.06-.02,0,0,0,0,0,0,0,0,0,0,0,0,.66-.16,1.33-.29,2.01-.41,1.06-.18,1.77-1.17,1.59-2.23-.18-1.05-1.17-1.77-2.23-1.59-.14.02-.28.05-.42.07l-.8-3.26c.7-.13,1.4-.24,2.12-.33,5.23-.67,10.42-.22,15.42,1.33,1.02.32,2.11-.25,2.42-1.27.32-1.02-.25-2.11-1.27-2.42C46.7.09,40.96-.41,35.18.33Z"/>
    <g class="cls-3">
      <path class="cls-4" d="M19.16,44.43s-.01.05-.01.08c0,.03,0,.05-.01.08,0-.05.02-.11.02-.16Z"/>
    </g>
    <g class="cls-3">
      <path class="cls-4" d="M24.84,27.12s-.05.04-.07.07c.01-.01.03-.02.04-.04.01,0,.02-.02.03-.03Z"/>
    </g>
  </g>
</svg>